<svg width="60" height="76" viewBox="0 0 60 76" fill="none" xmlns="http://www.w3.org/2000/svg">
<path d="M42.3535 62.1143C45.1611 63.6518 47.6545 65.691 49.7148 68.1104C44.4373 72.8314 37.471 75.7031 29.833 75.7031C22.1949 75.703 15.2285 72.8315 9.95117 68.1104C12.0114 65.691 14.505 63.6519 17.3125 62.1143C20.7767 64.7885 25.1193 66.3799 29.834 66.3799C34.5482 66.3798 38.8896 64.788 42.3535 62.1143ZM19.1953 28.3291C13.2766 31.9267 9.32347 38.4367 9.32324 45.8691C9.32329 51.0778 11.266 55.8327 14.4648 59.4502C11.7794 61.0675 9.36863 63.095 7.32129 65.4473C2.76117 60.2078 0 53.3606 0 45.8691C0.000265716 36.8398 4.01176 28.7472 10.3496 23.2764L19.1953 28.3291ZM49.3154 23.2764C55.654 28.7472 59.6667 36.8393 59.667 45.8691C59.667 53.361 56.9045 60.2077 52.3438 65.4473C50.2964 63.0953 47.8865 61.0673 45.2012 59.4502C48.4002 55.8326 50.3437 51.0781 50.3438 45.8691C50.3435 38.4359 46.3892 31.9265 40.4697 28.3291L49.3154 23.2764Z" fill="#1E1E1E"/>
<path d="M29.9277 30.25V30.3584L29.833 30.3037L29.7373 30.3584V30.25L3.35742 15.1787L29.7373 0.108398V0L29.833 0.0537109L29.9277 0V0.108398L56.3076 15.1787L29.9277 30.25Z" fill="#DCA934"/>
<path d="M39.5293 46.6157C39.5293 52.3826 35.1884 57.0576 29.8335 57.0576C24.4787 57.0576 20.1377 52.3826 20.1377 46.6157C20.1377 40.8488 24.4787 36.1738 29.8335 36.1738C35.1884 36.1738 39.5293 40.8488 39.5293 46.6157Z" fill="#DCA934"/>
</svg>
